<svg version="1.1" xmlns="http://www.w3.org/2000/svg" xmlns:xlink="http://www.w3.org/1999/xlink" viewBox="0 0 252 252"><g fill="none" fill-rule="nonzero" stroke="none" stroke-width="1" stroke-linecap="butt" stroke-linejoin="miter" stroke-miterlimit="10" stroke-dasharray="" stroke-dashoffset="0" font-family="none" font-weight="none" font-size="none" text-anchor="none" style="mix-blend-mode: normal"><path d="M0,252v-252h252v252z" fill="none"></path><path d="M126,217.98c-50.79915,0 -91.98,-41.18085 -91.98,-91.98v0c0,-50.79915 41.18085,-91.98 91.98,-91.98h0c50.79915,0 91.98,41.18085 91.98,91.98v0c0,50.79915 -41.18085,91.98 -91.98,91.98z" fill="#ecf0f1"></path><g fill="#bdc3c7"><path d="M126,32.445c-51.63542,0 -93.555,41.91958 -93.555,93.555c0,51.63542 41.91958,93.555 93.555,93.555c51.63542,0 93.555,-41.91958 93.555,-93.555c0,-51.63542 -41.91958,-93.555 -93.555,-93.555zM126,38.115c-1.56573,0 -2.835,1.26927 -2.835,2.835c0,1.56573 1.26927,2.835 2.835,2.835c1.56573,0 2.835,-1.26927 2.835,-2.835c0.00078,-1.48894 -1.15041,-2.72477 -2.63567,-2.82946c4.93053,0.01099 9.76127,0.44505 14.46847,1.23478c-0.32057,0.47007 -0.49228,1.02572 -0.4928,1.59469c0,1.56573 1.26927,2.835 2.835,2.835c1.56573,0 2.835,-1.26927 2.835,-2.835c-0.00059,-0.19353 -0.021,-0.38649 -0.06091,-0.57586c7.18382,1.65065 14.02559,4.17374 20.41532,7.46402c-0.33073,0.47438 -0.50849,1.03855 -0.50942,1.61683c0,1.56573 1.26927,2.835 2.835,2.835c1.13378,-0.00198 2.15735,-0.67928 2.60244,-1.72204c12.42746,7.44583 22.85811,17.87204 30.3046,30.29906c-1.04461,0.44589 -1.72227,1.47219 -1.72204,2.60798c0,1.56573 1.26927,2.835 2.835,2.835c0.57769,0.0007 1.14182,-0.17511 1.61683,-0.50388c3.28918,6.38848 5.81375,13.22761 7.46402,20.40978c-0.18937,-0.0399 -0.38233,-0.06031 -0.57586,-0.06091c-1.56573,0 -2.835,1.26927 -2.835,2.835c0,1.56573 1.26927,2.835 2.835,2.835c0.56897,-0.00052 1.12462,-0.17223 1.59469,-0.4928c0.80043,4.77102 1.24031,9.6678 1.24031,14.6678c0,-1.56573 -1.26927,-2.835 -2.835,-2.835c-1.56573,0 -2.835,1.26927 -2.835,2.835c0,1.56573 1.26927,2.835 2.835,2.835c1.48894,0.00078 2.72477,-1.15041 2.82946,-2.63567c-0.01099,4.93053 -0.44505,9.76127 -1.23478,14.46847c-0.47007,-0.32057 -1.02572,-0.49228 -1.59469,-0.4928c-1.56573,0 -2.835,1.26927 -2.835,2.835c0,1.56573 1.26927,2.835 2.835,2.835c0.19353,-0.00059 0.38649,-0.021 0.57586,-0.06091c-1.65065,7.18382 -4.17374,14.02559 -7.46402,20.41532c-0.47438,-0.33073 -1.03855,-0.50849 -1.61683,-0.50942c-1.56573,0 -2.835,1.26927 -2.835,2.835c0.00198,1.13378 0.67928,2.15735 1.72204,2.60244c-7.44583,12.42746 -17.87204,22.85811 -30.29906,30.3046c-0.44589,-1.04461 -1.47219,-1.72227 -2.60798,-1.72204c-1.56573,0 -2.835,1.26927 -2.835,2.835c-0.0007,0.57769 0.17511,1.14182 0.50388,1.61683c-6.38848,3.28918 -13.22761,5.81375 -20.40978,7.46402c0.0399,-0.18937 0.06031,-0.38233 0.06091,-0.57586c0,-1.56573 -1.26927,-2.835 -2.835,-2.835c-1.56573,0 -2.835,1.26927 -2.835,2.835c0.00052,0.56897 0.17223,1.12462 0.4928,1.59469c-4.77102,0.80043 -9.6678,1.24031 -14.6678,1.24031c1.56573,0 2.835,-1.26927 2.835,-2.835c0,-1.56573 -1.26927,-2.835 -2.835,-2.835c-1.56573,0 -2.835,1.26927 -2.835,2.835c-0.00078,1.48894 1.15041,2.72477 2.63567,2.82946c-4.93051,-0.01158 -9.76116,-0.44503 -14.46847,-1.23478c0.32057,-0.47007 0.49228,-1.02572 0.4928,-1.59469c0,-1.56573 -1.26927,-2.835 -2.835,-2.835c-1.56573,0 -2.835,1.26927 -2.835,2.835c0.00059,0.19353 0.021,0.38649 0.06091,0.57586c-7.18129,-1.65007 -14.02154,-4.18238 -20.40978,-7.46956c0.32769,-0.47347 0.50345,-1.03549 0.50388,-1.6113c0,-1.56573 -1.26927,-2.835 -2.835,-2.835c-1.12316,0.0016 -2.13947,0.66611 -2.59137,1.69435c-2.56825,-1.53788 -5.05837,-3.19398 -7.44741,-4.97786c0.45768,0.29348 0.99009,0.44917 1.53378,0.44851c1.56573,0 2.835,-1.26927 2.835,-2.835c0,-1.56573 -1.26927,-2.835 -2.835,-2.835c-1.56573,0 -2.835,1.26927 -2.835,2.835c0.00046,0.86527 0.39605,1.68296 1.0742,2.22038c-6.58773,-4.95178 -12.44524,-10.81452 -17.40867,-17.39206c0.53893,0.6327 1.32835,0.99705 2.15947,0.99668c1.56573,0 2.835,-1.26927 2.835,-2.835c0,-1.56573 -1.26927,-2.835 -2.835,-2.835c-1.56573,0 -2.835,1.26927 -2.835,2.835c-0.00059,0.57086 0.17117,1.1286 0.4928,1.60022c-1.8047,-2.40863 -3.48485,-4.91131 -5.03877,-7.50278c1.03842,-0.44847 1.71089,-1.47131 1.71097,-2.60244c0,-1.56573 -1.26927,-2.835 -2.835,-2.835c-0.58266,0.00028 -1.15108,0.18009 -1.62791,0.51495c-3.29264,-6.39054 -5.81841,-13.2402 -7.46956,-20.4264c0.19461,0.04291 0.39319,0.06518 0.59247,0.06645c1.56573,0 2.835,-1.26927 2.835,-2.835c0,-1.56573 -1.26927,-2.835 -2.835,-2.835c-0.57333,-0.00008 -1.13321,0.17368 -1.60576,0.49834c-0.80101,-4.77144 -1.22924,-9.67214 -1.22924,-14.67334c0,1.56573 1.26927,2.835 2.835,2.835c1.56573,0 2.835,-1.26927 2.835,-2.835c0,-1.56573 -1.26927,-2.835 -2.835,-2.835c-1.48894,-0.00078 -2.72477,1.15041 -2.82946,2.63567c0.01099,-4.93053 0.44505,-9.76127 1.23478,-14.46847c0.47007,0.32057 1.02572,0.49228 1.59469,0.4928c1.56573,0 2.835,-1.26927 2.835,-2.835c0,-1.56573 -1.26927,-2.835 -2.835,-2.835c-0.19353,0.00059 -0.38649,0.021 -0.57586,0.06091c1.65065,-7.18382 4.17374,-14.02559 7.46402,-20.41532c0.47438,0.33073 1.03855,0.50849 1.61683,0.50942c1.56573,0 2.835,-1.26927 2.835,-2.835c-0.00198,-1.13378 -0.67928,-2.15735 -1.72204,-2.60244c7.44583,-12.42746 17.87204,-22.85811 30.29906,-30.3046c0.44589,1.04461 1.47219,1.72227 2.60798,1.72204c1.56573,0 2.835,-1.26927 2.835,-2.835c0.0007,-0.57769 -0.17511,-1.14182 -0.50388,-1.61683c6.38848,-3.28918 13.22761,-5.81375 20.40978,-7.46402c-0.0399,0.18937 -0.06031,0.38233 -0.06091,0.57586c0,1.56573 1.26927,2.835 2.835,2.835c1.56573,0 2.835,-1.26927 2.835,-2.835c-0.00052,-0.56897 -0.17223,-1.12462 -0.4928,-1.59469c4.77102,-0.80043 9.6678,-1.24031 14.6678,-1.24031zM100.485,46.62c-1.56573,0 -2.835,1.26927 -2.835,2.835c0,1.56573 1.26927,2.835 2.835,2.835c1.56573,0 2.835,-1.26927 2.835,-2.835c0,-1.56573 -1.26927,-2.835 -2.835,-2.835zM117.495,46.62c-1.56573,0 -2.835,1.26927 -2.835,2.835c0,1.56573 1.26927,2.835 2.835,2.835c1.56573,0 2.835,-1.26927 2.835,-2.835c0,-1.56573 -1.26927,-2.835 -2.835,-2.835zM134.505,46.62c-1.56573,0 -2.835,1.26927 -2.835,2.835c0,1.56573 1.26927,2.835 2.835,2.835c1.56573,0 2.835,-1.26927 2.835,-2.835c0,-1.56573 -1.26927,-2.835 -2.835,-2.835zM151.515,46.62c-1.56573,0 -2.835,1.26927 -2.835,2.835c0,1.56573 1.26927,2.835 2.835,2.835c1.56573,0 2.835,-1.26927 2.835,-2.835c0,-1.56573 -1.26927,-2.835 -2.835,-2.835zM74.97,55.125c-1.56573,0 -2.835,1.26927 -2.835,2.835c0,1.56573 1.26927,2.835 2.835,2.835c1.56573,0 2.835,-1.26927 2.835,-2.835c0,-1.56573 -1.26927,-2.835 -2.835,-2.835zM91.98,55.125c-1.56573,0 -2.835,1.26927 -2.835,2.835c0,1.56573 1.26927,2.835 2.835,2.835c1.56573,0 2.835,-1.26927 2.835,-2.835c0,-1.56573 -1.26927,-2.835 -2.835,-2.835zM108.99,55.125c-1.56573,0 -2.835,1.26927 -2.835,2.835c0,1.56573 1.26927,2.835 2.835,2.835c1.56573,0 2.835,-1.26927 2.835,-2.835c0,-1.56573 -1.26927,-2.835 -2.835,-2.835zM126,55.125c-1.56573,0 -2.835,1.26927 -2.835,2.835c0,1.56573 1.26927,2.835 2.835,2.835c1.56573,0 2.835,-1.26927 2.835,-2.835c0,-1.56573 -1.26927,-2.835 -2.835,-2.835zM143.01,55.125c-1.56573,0 -2.835,1.26927 -2.835,2.835c0,1.56573 1.26927,2.835 2.835,2.835c1.56573,0 2.835,-1.26927 2.835,-2.835c0,-1.56573 -1.26927,-2.835 -2.835,-2.835zM160.02,55.125c-1.56573,0 -2.835,1.26927 -2.835,2.835c0,1.56573 1.26927,2.835 2.835,2.835c1.56573,0 2.835,-1.26927 2.835,-2.835c0,-1.56573 -1.26927,-2.835 -2.835,-2.835zM177.03,55.125c-1.56573,0 -2.835,1.26927 -2.835,2.835c0,1.56573 1.26927,2.835 2.835,2.835c1.56573,0 2.835,-1.26927 2.835,-2.835c0,-1.56573 -1.26927,-2.835 -2.835,-2.835zM66.465,63.63c-1.56573,0 -2.835,1.26927 -2.835,2.835c0,1.56573 1.26927,2.835 2.835,2.835c1.56573,0 2.835,-1.26927 2.835,-2.835c0,-1.56573 -1.26927,-2.835 -2.835,-2.835zM83.475,63.63c-1.56573,0 -2.835,1.26927 -2.835,2.835c0,1.56573 1.26927,2.835 2.835,2.835c1.56573,0 2.835,-1.26927 2.835,-2.835c0,-1.56573 -1.26927,-2.835 -2.835,-2.835zM100.485,63.63c-1.56573,0 -2.835,1.26927 -2.835,2.835c0,1.56573 1.26927,2.835 2.835,2.835c1.56573,0 2.835,-1.26927 2.835,-2.835c0,-1.56573 -1.26927,-2.835 -2.835,-2.835zM117.495,63.63c-1.56573,0 -2.835,1.26927 -2.835,2.835c0,1.56573 1.26927,2.835 2.835,2.835c1.56573,0 2.835,-1.26927 2.835,-2.835c0,-1.56573 -1.26927,-2.835 -2.835,-2.835zM134.505,63.63c-1.56573,0 -2.835,1.26927 -2.835,2.835c0,1.56573 1.26927,2.835 2.835,2.835c1.56573,0 2.835,-1.26927 2.835,-2.835c0,-1.56573 -1.26927,-2.835 -2.835,-2.835zM151.515,63.63c-1.56573,0 -2.835,1.26927 -2.835,2.835c0,1.56573 1.26927,2.835 2.835,2.835c1.56573,0 2.835,-1.26927 2.835,-2.835c0,-1.56573 -1.26927,-2.835 -2.835,-2.835zM168.525,63.63c-1.56573,0 -2.835,1.26927 -2.835,2.835c0,1.56573 1.26927,2.835 2.835,2.835c1.56573,0 2.835,-1.26927 2.835,-2.835c0,-1.56573 -1.26927,-2.835 -2.835,-2.835zM185.535,63.63c-1.56573,0 -2.835,1.26927 -2.835,2.835c0,1.56573 1.26927,2.835 2.835,2.835c1.56573,0 2.835,-1.26927 2.835,-2.835c0,-1.56573 -1.26927,-2.835 -2.835,-2.835zM57.96,72.135c-1.56573,0 -2.835,1.26927 -2.835,2.835c0,1.56573 1.26927,2.835 2.835,2.835c1.56573,0 2.835,-1.26927 2.835,-2.835c0,-1.56573 -1.26927,-2.835 -2.835,-2.835zM74.97,72.135c-1.56573,0 -2.835,1.26927 -2.835,2.835c0,1.56573 1.26927,2.835 2.835,2.835c1.56573,0 2.835,-1.26927 2.835,-2.835c0,-1.56573 -1.26927,-2.835 -2.835,-2.835zM91.98,72.135c-1.56573,0 -2.835,1.26927 -2.835,2.835c0,1.56573 1.26927,2.835 2.835,2.835c1.56573,0 2.835,-1.26927 2.835,-2.835c0,-1.56573 -1.26927,-2.835 -2.835,-2.835zM108.99,72.135c-1.56573,0 -2.835,1.26927 -2.835,2.835c0,1.56573 1.26927,2.835 2.835,2.835c1.56573,0 2.835,-1.26927 2.835,-2.835c0,-1.56573 -1.26927,-2.835 -2.835,-2.835zM126,72.135c-1.56573,0 -2.835,1.26927 -2.835,2.835c0,1.56573 1.26927,2.835 2.835,2.835c1.56573,0 2.835,-1.26927 2.835,-2.835c0,-1.56573 -1.26927,-2.835 -2.835,-2.835zM143.01,72.135c-1.56573,0 -2.835,1.26927 -2.835,2.835c0,1.56573 1.26927,2.835 2.835,2.835c1.56573,0 2.835,-1.26927 2.835,-2.835c0,-1.56573 -1.26927,-2.835 -2.835,-2.835zM160.02,72.135c-1.56573,0 -2.835,1.26927 -2.835,2.835c0,1.56573 1.26927,2.835 2.835,2.835c1.56573,0 2.835,-1.26927 2.835,-2.835c0,-1.56573 -1.26927,-2.835 -2.835,-2.835zM177.03,72.135c-1.56573,0 -2.835,1.26927 -2.835,2.835c0,1.56573 1.26927,2.835 2.835,2.835c1.56573,0 2.835,-1.26927 2.835,-2.835c0,-1.56573 -1.26927,-2.835 -2.835,-2.835zM194.04,72.135c-1.56573,0 -2.835,1.26927 -2.835,2.835c0,1.56573 1.26927,2.835 2.835,2.835c1.56573,0 2.835,-1.26927 2.835,-2.835c0,-1.56573 -1.26927,-2.835 -2.835,-2.835zM66.465,80.64c-1.56573,0 -2.835,1.26927 -2.835,2.835c0,1.56573 1.26927,2.835 2.835,2.835c1.56573,0 2.835,-1.26927 2.835,-2.835c0,-1.56573 -1.26927,-2.835 -2.835,-2.835zM83.475,80.64c-1.56573,0 -2.835,1.26927 -2.835,2.835c0,1.56573 1.26927,2.835 2.835,2.835c1.56573,0 2.835,-1.26927 2.835,-2.835c0,-1.56573 -1.26927,-2.835 -2.835,-2.835zM100.485,80.64c-1.56573,0 -2.835,1.26927 -2.835,2.835c0,1.56573 1.26927,2.835 2.835,2.835c1.56573,0 2.835,-1.26927 2.835,-2.835c0,-1.56573 -1.26927,-2.835 -2.835,-2.835zM117.495,80.64c-1.56573,0 -2.835,1.26927 -2.835,2.835c0,1.56573 1.26927,2.835 2.835,2.835c1.56573,0 2.835,-1.26927 2.835,-2.835c0,-1.56573 -1.26927,-2.835 -2.835,-2.835zM134.505,80.64c-1.56573,0 -2.835,1.26927 -2.835,2.835c0,1.56573 1.26927,2.835 2.835,2.835c1.56573,0 2.835,-1.26927 2.835,-2.835c0,-1.56573 -1.26927,-2.835 -2.835,-2.835zM151.515,80.64c-1.56573,0 -2.835,1.26927 -2.835,2.835c0,1.56573 1.26927,2.835 2.835,2.835c1.56573,0 2.835,-1.26927 2.835,-2.835c0,-1.56573 -1.26927,-2.835 -2.835,-2.835zM168.525,80.64c-1.56573,0 -2.835,1.26927 -2.835,2.835c0,1.56573 1.26927,2.835 2.835,2.835c1.56573,0 2.835,-1.26927 2.835,-2.835c0,-1.56573 -1.26927,-2.835 -2.835,-2.835zM185.535,80.64c-1.56573,0 -2.835,1.26927 -2.835,2.835c0,1.56573 1.26927,2.835 2.835,2.835c1.56573,0 2.835,-1.26927 2.835,-2.835c0,-1.56573 -1.26927,-2.835 -2.835,-2.835zM57.96,89.145c-1.56573,0 -2.835,1.26927 -2.835,2.835c0,1.56573 1.26927,2.835 2.835,2.835c1.56573,0 2.835,-1.26927 2.835,-2.835c0,-1.56573 -1.26927,-2.835 -2.835,-2.835zM74.97,89.145c-1.56573,0 -2.835,1.26927 -2.835,2.835c0,1.56573 1.26927,2.835 2.835,2.835c1.56573,0 2.835,-1.26927 2.835,-2.835c0,-1.56573 -1.26927,-2.835 -2.835,-2.835zM91.98,89.145c-1.56573,0 -2.835,1.26927 -2.835,2.835c0,1.56573 1.26927,2.835 2.835,2.835c1.56573,0 2.835,-1.26927 2.835,-2.835c0,-1.56573 -1.26927,-2.835 -2.835,-2.835zM108.99,89.145c-1.56573,0 -2.835,1.26927 -2.835,2.835c0,1.56573 1.26927,2.835 2.835,2.835c1.56573,0 2.835,-1.26927 2.835,-2.835c0,-1.56573 -1.26927,-2.835 -2.835,-2.835zM126,89.145c-1.56573,0 -2.835,1.26927 -2.835,2.835c0,1.56573 1.26927,2.835 2.835,2.835c1.56573,0 2.835,-1.26927 2.835,-2.835c0,-1.56573 -1.26927,-2.835 -2.835,-2.835zM143.01,89.145c-1.56573,0 -2.835,1.26927 -2.835,2.835c0,1.56573 1.26927,2.835 2.835,2.835c1.56573,0 2.835,-1.26927 2.835,-2.835c0,-1.56573 -1.26927,-2.835 -2.835,-2.835zM160.02,89.145c-1.56573,0 -2.835,1.26927 -2.835,2.835c0,1.56573 1.26927,2.835 2.835,2.835c1.56573,0 2.835,-1.26927 2.835,-2.835c0,-1.56573 -1.26927,-2.835 -2.835,-2.835zM177.03,89.145c-1.56573,0 -2.835,1.26927 -2.835,2.835c0,1.56573 1.26927,2.835 2.835,2.835c1.56573,0 2.835,-1.26927 2.835,-2.835c0,-1.56573 -1.26927,-2.835 -2.835,-2.835zM194.04,89.145c-1.56573,0 -2.835,1.26927 -2.835,2.835c0,1.56573 1.26927,2.835 2.835,2.835c1.56573,0 2.835,-1.26927 2.835,-2.835c0,-1.56573 -1.26927,-2.835 -2.835,-2.835zM49.455,97.65c-1.56573,0 -2.835,1.26927 -2.835,2.835c0,1.56573 1.26927,2.835 2.835,2.835c1.56573,0 2.835,-1.26927 2.835,-2.835c0,-1.56573 -1.26927,-2.835 -2.835,-2.835zM66.465,97.65c-1.56573,0 -2.835,1.26927 -2.835,2.835c0,1.56573 1.26927,2.835 2.835,2.835c1.56573,0 2.835,-1.26927 2.835,-2.835c0,-1.56573 -1.26927,-2.835 -2.835,-2.835zM83.475,97.65c-1.56573,0 -2.835,1.26927 -2.835,2.835c0,1.56573 1.26927,2.835 2.835,2.835c1.56573,0 2.835,-1.26927 2.835,-2.835c0,-1.56573 -1.26927,-2.835 -2.835,-2.835zM100.485,97.65c-1.56573,0 -2.835,1.26927 -2.835,2.835c0,1.56573 1.26927,2.835 2.835,2.835c1.56573,0 2.835,-1.26927 2.835,-2.835c0,-1.56573 -1.26927,-2.835 -2.835,-2.835zM117.495,97.65c-1.56573,0 -2.835,1.26927 -2.835,2.835c0,1.56573 1.26927,2.835 2.835,2.835c1.56573,0 2.835,-1.26927 2.835,-2.835c0,-1.56573 -1.26927,-2.835 -2.835,-2.835zM134.505,97.65c-1.56573,0 -2.835,1.26927 -2.835,2.835c0,1.56573 1.26927,2.835 2.835,2.835c1.56573,0 2.835,-1.26927 2.835,-2.835c0,-1.56573 -1.26927,-2.835 -2.835,-2.835zM151.515,97.65c-1.56573,0 -2.835,1.26927 -2.835,2.835c0,1.56573 1.26927,2.835 2.835,2.835c1.56573,0 2.835,-1.26927 2.835,-2.835c0,-1.56573 -1.26927,-2.835 -2.835,-2.835zM168.525,97.65c-1.56573,0 -2.835,1.26927 -2.835,2.835c0,1.56573 1.26927,2.835 2.835,2.835c1.56573,0 2.835,-1.26927 2.835,-2.835c0,-1.56573 -1.26927,-2.835 -2.835,-2.835zM185.535,97.65c-1.56573,0 -2.835,1.26927 -2.835,2.835c0,1.56573 1.26927,2.835 2.835,2.835c1.56573,0 2.835,-1.26927 2.835,-2.835c0,-1.56573 -1.26927,-2.835 -2.835,-2.835zM202.545,97.65c-1.56573,0 -2.835,1.26927 -2.835,2.835c0,1.56573 1.26927,2.835 2.835,2.835c1.56573,0 2.835,-1.26927 2.835,-2.835c0,-1.56573 -1.26927,-2.835 -2.835,-2.835zM57.96,106.155c-1.56573,0 -2.835,1.26927 -2.835,2.835c0,1.56573 1.26927,2.835 2.835,2.835c1.56573,0 2.835,-1.26927 2.835,-2.835c0,-1.56573 -1.26927,-2.835 -2.835,-2.835zM74.97,106.155c-1.56573,0 -2.835,1.26927 -2.835,2.835c0,1.56573 1.26927,2.835 2.835,2.835c1.56573,0 2.835,-1.26927 2.835,-2.835c0,-1.56573 -1.26927,-2.835 -2.835,-2.835zM91.98,106.155c-1.56573,0 -2.835,1.26927 -2.835,2.835c0,1.56573 1.26927,2.835 2.835,2.835c1.56573,0 2.835,-1.26927 2.835,-2.835c0,-1.56573 -1.26927,-2.835 -2.835,-2.835zM108.99,106.155c-1.56573,0 -2.835,1.26927 -2.835,2.835c0,1.56573 1.26927,2.835 2.835,2.835c1.56573,0 2.835,-1.26927 2.835,-2.835c0,-1.56573 -1.26927,-2.835 -2.835,-2.835zM126,106.155c-1.56573,0 -2.835,1.26927 -2.835,2.835c0,1.56573 1.26927,2.835 2.835,2.835c1.56573,0 2.835,-1.26927 2.835,-2.835c0,-1.56573 -1.26927,-2.835 -2.835,-2.835zM143.01,106.155c-1.56573,0 -2.835,1.26927 -2.835,2.835c0,1.56573 1.26927,2.835 2.835,2.835c1.56573,0 2.835,-1.26927 2.835,-2.835c0,-1.56573 -1.26927,-2.835 -2.835,-2.835zM160.02,106.155c-1.56573,0 -2.835,1.26927 -2.835,2.835c0,1.56573 1.26927,2.835 2.835,2.835c1.56573,0 2.835,-1.26927 2.835,-2.835c0,-1.56573 -1.26927,-2.835 -2.835,-2.835zM177.03,106.155c-1.56573,0 -2.835,1.26927 -2.835,2.835c0,1.56573 1.26927,2.835 2.835,2.835c1.56573,0 2.835,-1.26927 2.835,-2.835c0,-1.56573 -1.26927,-2.835 -2.835,-2.835zM194.04,106.155c-1.56573,0 -2.835,1.26927 -2.835,2.835c0,1.56573 1.26927,2.835 2.835,2.835c1.56573,0 2.835,-1.26927 2.835,-2.835c0,-1.56573 -1.26927,-2.835 -2.835,-2.835zM49.455,114.66c-1.56573,0 -2.835,1.26927 -2.835,2.835c0,1.56573 1.26927,2.835 2.835,2.835c1.56573,0 2.835,-1.26927 2.835,-2.835c0,-1.56573 -1.26927,-2.835 -2.835,-2.835zM66.465,114.66c-1.56573,0 -2.835,1.26927 -2.835,2.835c0,1.56573 1.26927,2.835 2.835,2.835c1.56573,0 2.835,-1.26927 2.835,-2.835c0,-1.56573 -1.26927,-2.835 -2.835,-2.835zM83.475,114.66c-1.56573,0 -2.835,1.26927 -2.835,2.835c0,1.56573 1.26927,2.835 2.835,2.835c1.56573,0 2.835,-1.26927 2.835,-2.835c0,-1.56573 -1.26927,-2.835 -2.835,-2.835zM100.485,114.66c-1.56573,0 -2.835,1.26927 -2.835,2.835c0,1.56573 1.26927,2.835 2.835,2.835c1.56573,0 2.835,-1.26927 2.835,-2.835c0,-1.56573 -1.26927,-2.835 -2.835,-2.835zM117.495,114.66c-1.56573,0 -2.835,1.26927 -2.835,2.835c0,1.56573 1.26927,2.835 2.835,2.835c1.56573,0 2.835,-1.26927 2.835,-2.835c0,-1.56573 -1.26927,-2.835 -2.835,-2.835zM134.505,114.66c-1.56573,0 -2.835,1.26927 -2.835,2.835c0,1.56573 1.26927,2.835 2.835,2.835c1.56573,0 2.835,-1.26927 2.835,-2.835c0,-1.56573 -1.26927,-2.835 -2.835,-2.835zM151.515,114.66c-1.56573,0 -2.835,1.26927 -2.835,2.835c0,1.56573 1.26927,2.835 2.835,2.835c1.56573,0 2.835,-1.26927 2.835,-2.835c0,-1.56573 -1.26927,-2.835 -2.835,-2.835zM168.525,114.66c-1.56573,0 -2.835,1.26927 -2.835,2.835c0,1.56573 1.26927,2.835 2.835,2.835c1.56573,0 2.835,-1.26927 2.835,-2.835c0,-1.56573 -1.26927,-2.835 -2.835,-2.835zM185.535,114.66c-1.56573,0 -2.835,1.26927 -2.835,2.835c0,1.56573 1.26927,2.835 2.835,2.835c1.56573,0 2.835,-1.26927 2.835,-2.835c0,-1.56573 -1.26927,-2.835 -2.835,-2.835zM202.545,114.66c-1.56573,0 -2.835,1.26927 -2.835,2.835c0,1.56573 1.26927,2.835 2.835,2.835c1.56573,0 2.835,-1.26927 2.835,-2.835c0,-1.56573 -1.26927,-2.835 -2.835,-2.835zM57.96,123.165c-1.56573,0 -2.835,1.26927 -2.835,2.835c0,1.56573 1.26927,2.835 2.835,2.835c1.56573,0 2.835,-1.26927 2.835,-2.835c0,-1.56573 -1.26927,-2.835 -2.835,-2.835zM74.97,123.165c-1.56573,0 -2.835,1.26927 -2.835,2.835c0,1.56573 1.26927,2.835 2.835,2.835c1.56573,0 2.835,-1.26927 2.835,-2.835c0,-1.56573 -1.26927,-2.835 -2.835,-2.835zM91.98,123.165c-1.56573,0 -2.835,1.26927 -2.835,2.835c0,1.56573 1.26927,2.835 2.835,2.835c1.56573,0 2.835,-1.26927 2.835,-2.835c0,-1.56573 -1.26927,-2.835 -2.835,-2.835zM108.99,123.165c-1.56573,0 -2.835,1.26927 -2.835,2.835c0,1.56573 1.26927,2.835 2.835,2.835c1.56573,0 2.835,-1.26927 2.835,-2.835c0,-1.56573 -1.26927,-2.835 -2.835,-2.835zM126,123.165c-1.56573,0 -2.835,1.26927 -2.835,2.835c0,1.56573 1.26927,2.835 2.835,2.835c1.56573,0 2.835,-1.26927 2.835,-2.835c0,-1.56573 -1.26927,-2.835 -2.835,-2.835zM143.01,123.165c-1.56573,0 -2.835,1.26927 -2.835,2.835c0,1.56573 1.26927,2.835 2.835,2.835c1.56573,0 2.835,-1.26927 2.835,-2.835c0,-1.56573 -1.26927,-2.835 -2.835,-2.835zM160.02,123.165c-1.56573,0 -2.835,1.26927 -2.835,2.835c0,1.56573 1.26927,2.835 2.835,2.835c1.56573,0 2.835,-1.26927 2.835,-2.835c0,-1.56573 -1.26927,-2.835 -2.835,-2.835zM177.03,123.165c-1.56573,0 -2.835,1.26927 -2.835,2.835c0,1.56573 1.26927,2.835 2.835,2.835c1.56573,0 2.835,-1.26927 2.835,-2.835c0,-1.56573 -1.26927,-2.835 -2.835,-2.835zM194.04,123.165c-1.56573,0 -2.835,1.26927 -2.835,2.835c0,1.56573 1.26927,2.835 2.835,2.835c1.56573,0 2.835,-1.26927 2.835,-2.835c0,-1.56573 -1.26927,-2.835 -2.835,-2.835zM49.455,131.67c-1.56573,0 -2.835,1.26927 -2.835,2.835c0,1.56573 1.26927,2.835 2.835,2.835c1.56573,0 2.835,-1.26927 2.835,-2.835c0,-1.56573 -1.26927,-2.835 -2.835,-2.835zM66.465,131.67c-1.56573,0 -2.835,1.26927 -2.835,2.835c0,1.56573 1.26927,2.835 2.835,2.835c1.56573,0 2.835,-1.26927 2.835,-2.835c0,-1.56573 -1.26927,-2.835 -2.835,-2.835zM83.475,131.67c-1.56573,0 -2.835,1.26927 -2.835,2.835c0,1.56573 1.26927,2.835 2.835,2.835c1.56573,0 2.835,-1.26927 2.835,-2.835c0,-1.56573 -1.26927,-2.835 -2.835,-2.835zM100.485,131.67c-1.56573,0 -2.835,1.26927 -2.835,2.835c0,1.56573 1.26927,2.835 2.835,2.835c1.56573,0 2.835,-1.26927 2.835,-2.835c0,-1.56573 -1.26927,-2.835 -2.835,-2.835zM117.495,131.67c-1.56573,0 -2.835,1.26927 -2.835,2.835c0,1.56573 1.26927,2.835 2.835,2.835c1.56573,0 2.835,-1.26927 2.835,-2.835c0,-1.56573 -1.26927,-2.835 -2.835,-2.835zM134.505,131.67c-1.56573,0 -2.835,1.26927 -2.835,2.835c0,1.56573 1.26927,2.835 2.835,2.835c1.56573,0 2.835,-1.26927 2.835,-2.835c0,-1.56573 -1.26927,-2.835 -2.835,-2.835zM151.515,131.67c-1.56573,0 -2.835,1.26927 -2.835,2.835c0,1.56573 1.26927,2.835 2.835,2.835c1.56573,0 2.835,-1.26927 2.835,-2.835c0,-1.56573 -1.26927,-2.835 -2.835,-2.835zM168.525,131.67c-1.56573,0 -2.835,1.26927 -2.835,2.835c0,1.56573 1.26927,2.835 2.835,2.835c1.56573,0 2.835,-1.26927 2.835,-2.835c0,-1.56573 -1.26927,-2.835 -2.835,-2.835zM185.535,131.67c-1.56573,0 -2.835,1.26927 -2.835,2.835c0,1.56573 1.26927,2.835 2.835,2.835c1.56573,0 2.835,-1.26927 2.835,-2.835c0,-1.56573 -1.26927,-2.835 -2.835,-2.835zM202.545,131.67c-1.56573,0 -2.835,1.26927 -2.835,2.835c0,1.56573 1.26927,2.835 2.835,2.835c1.56573,0 2.835,-1.26927 2.835,-2.835c0,-1.56573 -1.26927,-2.835 -2.835,-2.835zM57.96,140.175c-1.56573,0 -2.835,1.26927 -2.835,2.835c0,1.56573 1.26927,2.835 2.835,2.835c1.56573,0 2.835,-1.26927 2.835,-2.835c0,-1.56573 -1.26927,-2.835 -2.835,-2.835zM74.97,140.175c-1.56573,0 -2.835,1.26927 -2.835,2.835c0,1.56573 1.26927,2.835 2.835,2.835c1.56573,0 2.835,-1.26927 2.835,-2.835c0,-1.56573 -1.26927,-2.835 -2.835,-2.835zM91.98,140.175c-1.56573,0 -2.835,1.26927 -2.835,2.835c0,1.56573 1.26927,2.835 2.835,2.835c1.56573,0 2.835,-1.26927 2.835,-2.835c0,-1.56573 -1.26927,-2.835 -2.835,-2.835zM108.99,140.175c-1.56573,0 -2.835,1.26927 -2.835,2.835c0,1.56573 1.26927,2.835 2.835,2.835c1.56573,0 2.835,-1.26927 2.835,-2.835c0,-1.56573 -1.26927,-2.835 -2.835,-2.835zM126,140.175c-1.56573,0 -2.835,1.26927 -2.835,2.835c0,1.56573 1.26927,2.835 2.835,2.835c1.56573,0 2.835,-1.26927 2.835,-2.835c0,-1.56573 -1.26927,-2.835 -2.835,-2.835zM143.01,140.175c-1.56573,0 -2.835,1.26927 -2.835,2.835c0,1.56573 1.26927,2.835 2.835,2.835c1.56573,0 2.835,-1.26927 2.835,-2.835c0,-1.56573 -1.26927,-2.835 -2.835,-2.835zM160.02,140.175c-1.56573,0 -2.835,1.26927 -2.835,2.835c0,1.56573 1.26927,2.835 2.835,2.835c1.56573,0 2.835,-1.26927 2.835,-2.835c0,-1.56573 -1.26927,-2.835 -2.835,-2.835zM177.03,140.175c-1.56573,0 -2.835,1.26927 -2.835,2.835c0,1.56573 1.26927,2.835 2.835,2.835c1.56573,0 2.835,-1.26927 2.835,-2.835c0,-1.56573 -1.26927,-2.835 -2.835,-2.835zM194.04,140.175c-1.56573,0 -2.835,1.26927 -2.835,2.835c0,1.56573 1.26927,2.835 2.835,2.835c1.56573,0 2.835,-1.26927 2.835,-2.835c0,-1.56573 -1.26927,-2.835 -2.835,-2.835zM49.455,148.68c-1.56573,0 -2.835,1.26927 -2.835,2.835c0,1.56573 1.26927,2.835 2.835,2.835c1.56573,0 2.835,-1.26927 2.835,-2.835c0,-1.56573 -1.26927,-2.835 -2.835,-2.835zM66.465,148.68c-1.56573,0 -2.835,1.26927 -2.835,2.835c0,1.56573 1.26927,2.835 2.835,2.835c1.56573,0 2.835,-1.26927 2.835,-2.835c0,-1.56573 -1.26927,-2.835 -2.835,-2.835zM83.475,148.68c-1.56573,0 -2.835,1.26927 -2.835,2.835c0,1.56573 1.26927,2.835 2.835,2.835c1.56573,0 2.835,-1.26927 2.835,-2.835c0,-1.56573 -1.26927,-2.835 -2.835,-2.835zM100.485,148.68c-1.56573,0 -2.835,1.26927 -2.835,2.835c0,1.56573 1.26927,2.835 2.835,2.835c1.56573,0 2.835,-1.26927 2.835,-2.835c0,-1.56573 -1.26927,-2.835 -2.835,-2.835zM117.495,148.68c-1.56573,0 -2.835,1.26927 -2.835,2.835c0,1.56573 1.26927,2.835 2.835,2.835c1.56573,0 2.835,-1.26927 2.835,-2.835c0,-1.56573 -1.26927,-2.835 -2.835,-2.835zM134.505,148.68c-1.56573,0 -2.835,1.26927 -2.835,2.835c0,1.56573 1.26927,2.835 2.835,2.835c1.56573,0 2.835,-1.26927 2.835,-2.835c0,-1.56573 -1.26927,-2.835 -2.835,-2.835zM151.515,148.68c-1.56573,0 -2.835,1.26927 -2.835,2.835c0,1.56573 1.26927,2.835 2.835,2.835c1.56573,0 2.835,-1.26927 2.835,-2.835c0,-1.56573 -1.26927,-2.835 -2.835,-2.835zM168.525,148.68c-1.56573,0 -2.835,1.26927 -2.835,2.835c0,1.56573 1.26927,2.835 2.835,2.835c1.56573,0 2.835,-1.26927 2.835,-2.835c0,-1.56573 -1.26927,-2.835 -2.835,-2.835zM185.535,148.68c-1.56573,0 -2.835,1.26927 -2.835,2.835c0,1.56573 1.26927,2.835 2.835,2.835c1.56573,0 2.835,-1.26927 2.835,-2.835c0,-1.56573 -1.26927,-2.835 -2.835,-2.835zM202.545,148.68c-1.56573,0 -2.835,1.26927 -2.835,2.835c0,1.56573 1.26927,2.835 2.835,2.835c1.56573,0 2.835,-1.26927 2.835,-2.835c0,-1.56573 -1.26927,-2.835 -2.835,-2.835zM57.96,157.185c-1.56573,0 -2.835,1.26927 -2.835,2.835c0,1.56573 1.26927,2.835 2.835,2.835c1.56573,0 2.835,-1.26927 2.835,-2.835c0,-1.56573 -1.26927,-2.835 -2.835,-2.835zM74.97,157.185c-1.56573,0 -2.835,1.26927 -2.835,2.835c0,1.56573 1.26927,2.835 2.835,2.835c1.56573,0 2.835,-1.26927 2.835,-2.835c0,-1.56573 -1.26927,-2.835 -2.835,-2.835zM91.98,157.185c-1.56573,0 -2.835,1.26927 -2.835,2.835c0,1.56573 1.26927,2.835 2.835,2.835c1.56573,0 2.835,-1.26927 2.835,-2.835c0,-1.56573 -1.26927,-2.835 -2.835,-2.835zM108.99,157.185c-1.56573,0 -2.835,1.26927 -2.835,2.835c0,1.56573 1.26927,2.835 2.835,2.835c1.56573,0 2.835,-1.26927 2.835,-2.835c0,-1.56573 -1.26927,-2.835 -2.835,-2.835zM126,157.185c-1.56573,0 -2.835,1.26927 -2.835,2.835c0,1.56573 1.26927,2.835 2.835,2.835c1.56573,0 2.835,-1.26927 2.835,-2.835c0,-1.56573 -1.26927,-2.835 -2.835,-2.835zM143.01,157.185c-1.56573,0 -2.835,1.26927 -2.835,2.835c0,1.56573 1.26927,2.835 2.835,2.835c1.56573,0 2.835,-1.26927 2.835,-2.835c0,-1.56573 -1.26927,-2.835 -2.835,-2.835zM160.02,157.185c-1.56573,0 -2.835,1.26927 -2.835,2.835c0,1.56573 1.26927,2.835 2.835,2.835c1.56573,0 2.835,-1.26927 2.835,-2.835c0,-1.56573 -1.26927,-2.835 -2.835,-2.835zM177.03,157.185c-1.56573,0 -2.835,1.26927 -2.835,2.835c0,1.56573 1.26927,2.835 2.835,2.835c1.56573,0 2.835,-1.26927 2.835,-2.835c0,-1.56573 -1.26927,-2.835 -2.835,-2.835zM194.04,157.185c-1.56573,0 -2.835,1.26927 -2.835,2.835c0,1.56573 1.26927,2.835 2.835,2.835c1.56573,0 2.835,-1.26927 2.835,-2.835c0,-1.56573 -1.26927,-2.835 -2.835,-2.835zM66.465,165.69c-1.56573,0 -2.835,1.26927 -2.835,2.835c0,1.56573 1.26927,2.835 2.835,2.835c1.56573,0 2.835,-1.26927 2.835,-2.835c0,-1.56573 -1.26927,-2.835 -2.835,-2.835zM83.475,165.69c-1.56573,0 -2.835,1.26927 -2.835,2.835c0,1.56573 1.26927,2.835 2.835,2.835c1.56573,0 2.835,-1.26927 2.835,-2.835c0,-1.56573 -1.26927,-2.835 -2.835,-2.835zM100.485,165.69c-1.56573,0 -2.835,1.26927 -2.835,2.835c0,1.56573 1.26927,2.835 2.835,2.835c1.56573,0 2.835,-1.26927 2.835,-2.835c0,-1.56573 -1.26927,-2.835 -2.835,-2.835zM117.495,165.69c-1.56573,0 -2.835,1.26927 -2.835,2.835c0,1.56573 1.26927,2.835 2.835,2.835c1.56573,0 2.835,-1.26927 2.835,-2.835c0,-1.56573 -1.26927,-2.835 -2.835,-2.835zM134.505,165.69c-1.56573,0 -2.835,1.26927 -2.835,2.835c0,1.56573 1.26927,2.835 2.835,2.835c1.56573,0 2.835,-1.26927 2.835,-2.835c0,-1.56573 -1.26927,-2.835 -2.835,-2.835zM151.515,165.69c-1.56573,0 -2.835,1.26927 -2.835,2.835c0,1.56573 1.26927,2.835 2.835,2.835c1.56573,0 2.835,-1.26927 2.835,-2.835c0,-1.56573 -1.26927,-2.835 -2.835,-2.835zM168.525,165.69c-1.56573,0 -2.835,1.26927 -2.835,2.835c0,1.56573 1.26927,2.835 2.835,2.835c1.56573,0 2.835,-1.26927 2.835,-2.835c0,-1.56573 -1.26927,-2.835 -2.835,-2.835zM185.535,165.69c-1.56573,0 -2.835,1.26927 -2.835,2.835c0,1.56573 1.26927,2.835 2.835,2.835c1.56573,0 2.835,-1.26927 2.835,-2.835c0,-1.56573 -1.26927,-2.835 -2.835,-2.835zM74.97,174.195c-1.56573,0 -2.835,1.26927 -2.835,2.835c0,1.56573 1.26927,2.835 2.835,2.835c1.56573,0 2.835,-1.26927 2.835,-2.835c0,-1.56573 -1.26927,-2.835 -2.835,-2.835zM91.98,174.195c-1.56573,0 -2.835,1.26927 -2.835,2.835c0,1.56573 1.26927,2.835 2.835,2.835c1.56573,0 2.835,-1.26927 2.835,-2.835c0,-1.56573 -1.26927,-2.835 -2.835,-2.835zM108.99,174.195c-1.56573,0 -2.835,1.26927 -2.835,2.835c0,1.56573 1.26927,2.835 2.835,2.835c1.56573,0 2.835,-1.26927 2.835,-2.835c0,-1.56573 -1.26927,-2.835 -2.835,-2.835zM126,174.195c-1.56573,0 -2.835,1.26927 -2.835,2.835c0,1.56573 1.26927,2.835 2.835,2.835c1.56573,0 2.835,-1.26927 2.835,-2.835c0,-1.56573 -1.26927,-2.835 -2.835,-2.835zM143.01,174.195c-1.56573,0 -2.835,1.26927 -2.835,2.835c0,1.56573 1.26927,2.835 2.835,2.835c1.56573,0 2.835,-1.26927 2.835,-2.835c0,-1.56573 -1.26927,-2.835 -2.835,-2.835zM160.02,174.195c-1.56573,0 -2.835,1.26927 -2.835,2.835c0,1.56573 1.26927,2.835 2.835,2.835c1.56573,0 2.835,-1.26927 2.835,-2.835c0,-1.56573 -1.26927,-2.835 -2.835,-2.835zM177.03,174.195c-1.56573,0 -2.835,1.26927 -2.835,2.835c0,1.56573 1.26927,2.835 2.835,2.835c1.56573,0 2.835,-1.26927 2.835,-2.835c0,-1.56573 -1.26927,-2.835 -2.835,-2.835zM194.04,174.195c-1.56573,0 -2.835,1.26927 -2.835,2.835c0,1.56573 1.26927,2.835 2.835,2.835c1.56573,0 2.835,-1.26927 2.835,-2.835c0,-1.56573 -1.26927,-2.835 -2.835,-2.835zM66.465,182.7c-1.56573,0 -2.835,1.26927 -2.835,2.835c0,1.56573 1.26927,2.835 2.835,2.835c1.56573,0 2.835,-1.26927 2.835,-2.835c0,-1.56573 -1.26927,-2.835 -2.835,-2.835zM83.475,182.7c-1.56573,0 -2.835,1.26927 -2.835,2.835c0,1.56573 1.26927,2.835 2.835,2.835c1.56573,0 2.835,-1.26927 2.835,-2.835c0,-1.56573 -1.26927,-2.835 -2.835,-2.835zM100.485,182.7c-1.56573,0 -2.835,1.26927 -2.835,2.835c0,1.56573 1.26927,2.835 2.835,2.835c1.56573,0 2.835,-1.26927 2.835,-2.835c0,-1.56573 -1.26927,-2.835 -2.835,-2.835zM117.495,182.7c-1.56573,0 -2.835,1.26927 -2.835,2.835c0,1.56573 1.26927,2.835 2.835,2.835c1.56573,0 2.835,-1.26927 2.835,-2.835c0,-1.56573 -1.26927,-2.835 -2.835,-2.835zM134.505,182.7c-1.56573,0 -2.835,1.26927 -2.835,2.835c0,1.56573 1.26927,2.835 2.835,2.835c1.56573,0 2.835,-1.26927 2.835,-2.835c0,-1.56573 -1.26927,-2.835 -2.835,-2.835zM151.515,182.7c-1.56573,0 -2.835,1.26927 -2.835,2.835c0,1.56573 1.26927,2.835 2.835,2.835c1.56573,0 2.835,-1.26927 2.835,-2.835c0,-1.56573 -1.26927,-2.835 -2.835,-2.835zM168.525,182.7c-1.56573,0 -2.835,1.26927 -2.835,2.835c0,1.56573 1.26927,2.835 2.835,2.835c1.56573,0 2.835,-1.26927 2.835,-2.835c0,-1.56573 -1.26927,-2.835 -2.835,-2.835zM185.535,182.7c-1.56573,0 -2.835,1.26927 -2.835,2.835c0,1.56573 1.26927,2.835 2.835,2.835c1.56573,0 2.835,-1.26927 2.835,-2.835c0,-1.56573 -1.26927,-2.835 -2.835,-2.835zM91.98,191.205c-1.56573,0 -2.835,1.26927 -2.835,2.835c0,1.56573 1.26927,2.835 2.835,2.835c1.56573,0 2.835,-1.26927 2.835,-2.835c0,-1.56573 -1.26927,-2.835 -2.835,-2.835zM108.99,191.205c-1.56573,0 -2.835,1.26927 -2.835,2.835c0,1.56573 1.26927,2.835 2.835,2.835c1.56573,0 2.835,-1.26927 2.835,-2.835c0,-1.56573 -1.26927,-2.835 -2.835,-2.835zM126,191.205c-1.56573,0 -2.835,1.26927 -2.835,2.835c0,1.56573 1.26927,2.835 2.835,2.835c1.56573,0 2.835,-1.26927 2.835,-2.835c0,-1.56573 -1.26927,-2.835 -2.835,-2.835zM143.01,191.205c-1.56573,0 -2.835,1.26927 -2.835,2.835c0,1.56573 1.26927,2.835 2.835,2.835c1.56573,0 2.835,-1.26927 2.835,-2.835c0,-1.56573 -1.26927,-2.835 -2.835,-2.835zM160.02,191.205c-1.56573,0 -2.835,1.26927 -2.835,2.835c0,1.56573 1.26927,2.835 2.835,2.835c1.56573,0 2.835,-1.26927 2.835,-2.835c0,-1.56573 -1.26927,-2.835 -2.835,-2.835zM177.03,191.205c-1.56573,0 -2.835,1.26927 -2.835,2.835c0,1.56573 1.26927,2.835 2.835,2.835c1.56573,0 2.835,-1.26927 2.835,-2.835c0,-1.56573 -1.26927,-2.835 -2.835,-2.835zM100.485,199.71c-1.56573,0 -2.835,1.26927 -2.835,2.835c0,1.56573 1.26927,2.835 2.835,2.835c1.56573,0 2.835,-1.26927 2.835,-2.835c0,-1.56573 -1.26927,-2.835 -2.835,-2.835zM117.495,199.71c-1.56573,0 -2.835,1.26927 -2.835,2.835c0,1.56573 1.26927,2.835 2.835,2.835c1.56573,0 2.835,-1.26927 2.835,-2.835c0,-1.56573 -1.26927,-2.835 -2.835,-2.835zM134.505,199.71c-1.56573,0 -2.835,1.26927 -2.835,2.835c0,1.56573 1.26927,2.835 2.835,2.835c1.56573,0 2.835,-1.26927 2.835,-2.835c0,-1.56573 -1.26927,-2.835 -2.835,-2.835zM151.515,199.71c-1.56573,0 -2.835,1.26927 -2.835,2.835c0,1.56573 1.26927,2.835 2.835,2.835c1.56573,0 2.835,-1.26927 2.835,-2.835c0,-1.56573 -1.26927,-2.835 -2.835,-2.835z"></path></g></g></svg>
